<?xml version="1.0" encoding="UTF-8"?>
<!DOCTYPE svg PUBLIC "-//W3C//DTD SVG 1.1//EN" "http://www.w3.org/Graphics/SVG/1.1/DTD/svg11.dtd">
<svg xmlns="http://www.w3.org/2000/svg" version="1.1" width="500px" height="183px" style="shape-rendering:geometricPrecision; text-rendering:geometricPrecision; image-rendering:optimizeQuality; fill-rule:evenodd; clip-rule:evenodd" xmlns:xlink="http://www.w3.org/1999/xlink">
<g><path style="opacity:0.157" fill="#8d93e1" d="M 73.5,10.5 C 72.1667,10.8333 70.8333,11.1667 69.5,11.5C 70.5383,9.48052 71.8716,9.14719 73.5,10.5 Z"/></g>
<g><path style="opacity:1" fill="#829edd" d="M 97.5,11.5 C 95.901,11.7678 94.5676,11.4345 93.5,10.5C 95.1284,9.14719 96.4617,9.48052 97.5,11.5 Z"/></g>
<g><path style="opacity:1" fill="#30dfc4" d="M 93.5,10.5 C 94.5676,11.4345 95.901,11.7678 97.5,11.5C 100.17,10.8342 102.67,10.8342 105,11.5C 106.823,12.3117 108.656,13.3117 110.5,14.5C 111.167,14.8333 111.833,15.1667 112.5,15.5C 114.049,15.2642 115.549,15.2642 117,15.5C 117.317,17.3008 117.984,17.6341 119,16.5C 119.317,18.3008 119.984,18.6341 121,17.5C 121.333,18.1667 121.667,18.8333 122,19.5C 123,19.5 124,19.5 125,19.5C 126.414,20.9914 127.914,22.3247 129.5,23.5C 129.842,24.3382 130.508,24.6716 131.5,24.5C 131.5,25.1667 131.833,25.5 132.5,25.5C 132.833,26.5 133.5,27.1667 134.5,27.5C 135.5,28.1667 136.5,28.8333 137.5,29.5C 137.973,30.9063 138.973,31.573 140.5,31.5C 142.167,33.1667 143.833,34.8333 145.5,36.5C 145.738,38.4044 146.738,39.7377 148.5,40.5C 148.5,41.1667 148.833,41.5 149.5,41.5C 150.306,42.7281 151.306,43.7281 152.5,44.5C 151.167,44.8333 151.167,45.1667 152.5,45.5C 153.167,46.1667 153.833,46.8333 154.5,47.5C 153.167,47.8333 153.167,48.1667 154.5,48.5C 155.662,49.6779 156.662,50.8446 157.5,52C 156.655,53.5581 157.321,54.5581 159.5,55C 158.944,55.3826 158.611,55.8826 158.5,56.5C 158.833,57.1667 159.167,57.8333 159.5,58.5C 159.918,59.2216 160.584,59.7216 161.5,60C 160.366,61.016 160.699,61.6827 162.5,62C 162.043,62.414 161.709,62.914 161.5,63.5C 162.427,64.9056 163.427,66.4056 164.5,68C 165.166,69.9953 165.166,72.162 164.5,74.5C 164.328,75.4916 164.662,76.1583 165.5,76.5C 165.5,77.5 165.5,78.5 165.5,79.5C 165.216,81.4147 165.549,83.0813 166.5,84.5C 166.5,89.1667 166.5,93.8333 166.5,98.5C 165.766,99.7079 165.433,101.041 165.5,102.5C 165.5,103.5 165.5,104.5 165.5,105.5C 164.596,106.209 164.263,107.209 164.5,108.5C 164.414,109.496 164.748,110.329 165.5,111C 164.244,111.417 163.577,112.25 163.5,113.5C 162.662,113.842 162.328,114.508 162.5,115.5C 162.5,115.833 162.5,116.167 162.5,116.5C 161.662,116.842 161.328,117.508 161.5,118.5C 161.611,119.117 161.944,119.617 162.5,120C 161.584,120.278 160.918,120.778 160.5,121.5C 160.167,122.167 159.833,122.833 159.5,123.5C 160.953,124.825 160.619,125.658 158.5,126C 158.833,126.333 159.167,126.667 159.5,127C 158.187,129.512 156.521,131.679 154.5,133.5C 153.662,133.842 153.328,134.508 153.5,135.5C 152.833,135.5 152.5,135.833 152.5,136.5C 151.662,136.842 151.328,137.508 151.5,138.5C 150.833,138.5 150.5,138.833 150.5,139.5C 149.833,139.5 149.5,139.833 149.5,140.5C 148.094,140.973 147.427,141.973 147.5,143.5C 144.167,146.167 141.167,149.167 138.5,152.5C 137.508,152.328 136.842,152.662 136.5,153.5C 135.833,153.5 135.5,153.833 135.5,154.5C 134.833,154.5 134.5,154.833 134.5,155.5C 133.508,155.328 132.842,155.662 132.5,156.5C 131.274,158.363 129.941,159.363 128.5,159.5C 127.508,159.328 126.842,159.662 126.5,160.5C 125.322,161.662 124.155,162.662 123,163.5C 121.984,162.366 121.317,162.699 121,164.5C 119.984,163.366 119.317,163.699 119,165.5C 117.984,164.366 117.317,164.699 117,166.5C 116.617,165.944 116.117,165.611 115.5,165.5C 114.833,165.833 114.167,166.167 113.5,166.5C 112.778,166.918 112.278,167.584 112,168.5C 110.57,168.694 109.07,168.694 107.5,168.5C 106.833,169.167 106.167,169.833 105.5,170.5C 103.102,171.578 100.435,171.578 97.5,170.5C 95.901,170.232 94.5676,170.566 93.5,171.5C 92.5,171.5 91.5,171.5 90.5,171.5C 85.8333,171.5 81.1667,171.5 76.5,171.5C 74.7376,171.357 73.0709,171.691 71.5,172.5C 69.5485,170.467 67.3818,170.134 65,171.5C 64.0475,169.408 62.7141,169.075 61,170.5C 60.3946,168.519 59.3946,168.185 58,169.5C 56.5507,168.386 55.2173,167.386 54,166.5C 52.4974,166.835 51.164,166.835 50,166.5C 49.6827,164.699 49.016,164.366 48,165.5C 47.6827,163.699 47.016,163.366 46,164.5C 45.6827,162.699 45.016,162.366 44,163.5C 42.8446,162.662 41.6779,161.662 40.5,160.5C 40.1583,159.662 39.4916,159.328 38.5,159.5C 38.1667,158.167 37.8333,158.167 37.5,159.5C 36.7281,158.306 35.7281,157.306 34.5,156.5C 34.1583,155.662 33.4916,155.328 32.5,155.5C 32.5,154.833 32.1667,154.5 31.5,154.5C 31.5,153.833 31.1667,153.5 30.5,153.5C 29.7377,151.738 28.4044,150.738 26.5,150.5C 24.8061,148.139 22.8061,146.139 20.5,144.5C 20.573,142.973 19.9063,141.973 18.5,141.5C 18.1667,140.5 17.5,139.833 16.5,139.5C 16.6716,138.508 16.3382,137.842 15.5,137.5C 15.1667,136.5 14.5,135.833 13.5,135.5C 13.6716,134.508 13.3382,133.842 12.5,133.5C 11.3381,132.322 10.3381,131.155 9.5,130C 10.3452,128.442 9.67854,127.442 7.5,127C 8.63411,125.984 8.30077,125.317 6.5,125C 7.81457,123.605 7.48123,122.605 5.5,122C 6.63411,120.984 6.30077,120.317 4.5,120C 4.95735,119.586 5.29069,119.086 5.5,118.5C 4.57345,117.094 3.57345,115.594 2.5,114C 3.25244,113.329 3.58577,112.496 3.5,111.5C 3.67158,110.508 3.33825,109.842 2.5,109.5C 2.48944,107.983 1.82277,106.816 0.5,106C 1.33663,104.989 1.66997,103.822 1.5,102.5C 1.79472,100.265 1.46138,98.2646 0.5,96.5C 0.5,92.1667 0.5,87.8333 0.5,83.5C 1.10978,82.609 1.44312,81.609 1.5,80.5C 1.71351,78.8561 1.38017,77.3561 0.5,76C 1.82277,75.1841 2.48944,74.0174 2.5,72.5C 3.33825,72.1583 3.67158,71.4916 3.5,70.5C 2.83358,68.4938 2.83358,66.6605 3.5,65C 4.66623,62.6325 5.99957,60.4658 7.5,58.5C 8.53747,57.0697 9.20414,55.403 9.5,53.5C 9.15581,52.3172 9.82248,51.4839 11.5,51C 11.1667,50.6667 10.8333,50.3333 10.5,50C 11.9423,49.6232 12.9423,48.7899 13.5,47.5C 14.3382,47.1583 14.6716,46.4916 14.5,45.5C 15.1667,45.5 15.5,45.1667 15.5,44.5C 16.3382,44.1583 16.6716,43.4916 16.5,42.5C 17.5,42.1667 18.1667,41.5 18.5,40.5C 20.5,39.1667 22.1667,37.5 23.5,35.5C 23.5,34.1667 24.1667,33.5 25.5,33.5C 27.1667,32.5 28.5,31.1667 29.5,29.5C 30.5,29.1667 31.1667,28.5 31.5,27.5C 33.0269,27.573 34.0269,26.9063 34.5,25.5C 35.1667,25.5 35.5,25.1667 35.5,24.5C 36.4916,24.6716 37.1583,24.3382 37.5,23.5C 39.0862,22.3247 40.5862,20.9914 42,19.5C 43.016,20.6341 43.6827,20.3008 44,18.5C 45.016,19.6341 45.6827,19.3008 46,17.5C 46.3333,17.8333 46.6667,18.1667 47,18.5C 48.0633,17.5622 49.2299,16.5622 50.5,15.5C 51.086,15.7093 51.586,16.0426 52,16.5C 53.0633,15.5622 54.2299,14.5622 55.5,13.5C 56.9056,14.6682 58.0723,14.3348 59,12.5C 59.3333,12.8333 59.6667,13.1667 60,13.5C 62.9973,12.1336 66.164,11.467 69.5,11.5C 70.8333,11.1667 72.1667,10.8333 73.5,10.5C 80.1667,9.16667 86.8333,9.16667 93.5,10.5 Z"/></g>
<g><path style="opacity:0.031" fill="#a083e7" d="M 110.5,14.5 C 111.623,13.2426 112.289,13.5759 112.5,15.5C 111.833,15.1667 111.167,14.8333 110.5,14.5 Z"/></g>
<g><path style="opacity:1" fill="#9784e2" d="M 107.5,145.5 C 107.573,143.973 106.906,142.973 105.5,142.5C 105.586,141.504 105.252,140.671 104.5,140C 102.482,139.495 100.482,138.995 98.5,138.5C 97.0772,136.455 95.0772,135.455 92.5,135.5C 92.5,133.833 92.5,132.167 92.5,130.5C 96.3136,130.634 99.3136,129.3 101.5,126.5C 101.973,125.094 102.973,124.427 104.5,124.5C 106.027,124.573 107.027,123.906 107.5,122.5C 110.663,118.844 113.329,114.844 115.5,110.5C 116.643,107.024 116.81,103.358 116,99.5C 115.478,96.7187 114.311,94.3854 112.5,92.5C 112.573,90.9731 111.906,89.9731 110.5,89.5C 110.833,88.1667 111.167,86.8333 111.5,85.5C 112.899,82.3012 113.899,78.9679 114.5,75.5C 115.496,75.4142 116.329,75.7476 117,76.5C 117.662,82.321 118.829,87.9877 120.5,93.5C 120.427,95.0269 121.094,96.0269 122.5,96.5C 125.08,100.549 128.08,101.215 131.5,98.5C 132.117,98.3893 132.617,98.056 133,97.5C 133.499,92.5111 133.666,87.5111 133.5,82.5C 133.655,79.284 132.655,76.6174 130.5,74.5C 130.125,72.3024 129.458,70.3024 128.5,68.5C 128.072,65.2154 127.072,62.2154 125.5,59.5C 125.5,59.1667 125.5,58.8333 125.5,58.5C 125.665,55.1501 125.498,51.8168 125,48.5C 124.722,47.5842 124.222,46.9175 123.5,46.5C 123.573,44.9731 122.906,43.9731 121.5,43.5C 118.173,39.4033 115.173,39.7366 112.5,44.5C 110.413,45.5846 109.08,47.2512 108.5,49.5C 106.793,50.8726 105.46,52.5393 104.5,54.5C 102.413,55.5846 101.08,57.2512 100.5,59.5C 98.4131,60.5846 97.0798,62.2512 96.5,64.5C 94.4131,65.5846 93.0798,67.2512 92.5,69.5C 91.8333,69.5 91.5,69.8333 91.5,70.5C 90.8333,70.5 90.1667,70.5 89.5,70.5C 87.8333,70.5 86.1667,70.5 84.5,70.5C 81.3162,69.6768 77.9828,69.0101 74.5,68.5C 71.2467,61.6521 67.2467,55.3187 62.5,49.5C 62.573,47.9731 61.9063,46.9731 60.5,46.5C 59.4884,45.1283 58.4884,43.795 57.5,42.5C 56.5,39.5 54.5,37.5 51.5,36.5C 51.1667,36.5 50.8333,36.5 50.5,36.5C 48.623,35.3754 46.7897,35.7088 45,37.5C 42.9278,41.5557 41.7612,45.889 41.5,50.5C 39.9605,52.8383 39.2938,55.5049 39.5,58.5C 38.2318,60.9052 37.5651,63.5718 37.5,66.5C 37.5,66.8333 37.5,67.1667 37.5,67.5C 35.5974,74.5939 35.0974,81.9272 36,89.5C 36.3826,90.056 36.8826,90.3893 37.5,90.5C 37.5,90.8333 37.5,91.1667 37.5,91.5C 38.0981,94.8211 39.7647,95.8211 42.5,94.5C 45.5422,91.0824 47.5422,87.0824 48.5,82.5C 49.2216,82.0825 49.7216,81.4158 50,80.5C 50.2784,81.4158 50.7784,82.0825 51.5,82.5C 51.4203,85.7814 52.087,88.7814 53.5,91.5C 53.5,92.1667 53.5,92.8333 53.5,93.5C 53.5,93.8333 53.5,94.1667 53.5,94.5C 52.0937,94.9731 51.427,95.9731 51.5,97.5C 47.52,110.893 51.8534,120.56 64.5,126.5C 67.5539,128.531 70.8872,130.198 74.5,131.5C 75.5827,132.365 75.7494,133.365 75,134.5C 74.0053,135.066 73.172,135.733 72.5,136.5C 64.0436,137.957 59.3769,142.957 58.5,151.5C 57.6586,153.379 57.3253,155.379 57.5,157.5C 33.928,149.091 18.7613,132.757 12,108.5C 5.61055,75.1219 16.4439,48.9553 44.5,30C 70.4703,16.1023 96.4703,16.1023 122.5,30C 152.137,50.1196 162.637,77.6196 154,112.5C 146.575,133.594 132.575,148.594 112,157.5C 110.002,153.67 108.502,149.67 107.5,145.5 Z"/></g>
<g><path style="opacity:0.102" fill="#988de3" d="M 37.5,23.5 C 37.1583,24.3382 36.4916,24.6716 35.5,24.5C 36.0059,22.8946 36.6726,22.5613 37.5,23.5 Z"/></g>
<g><path style="opacity:0.11" fill="#968de4" d="M 131.5,24.5 C 130.508,24.6716 129.842,24.3382 129.5,23.5C 130.327,22.5613 130.994,22.8946 131.5,24.5 Z"/></g>
<g><path style="opacity:0.039" fill="#9192e1" d="M 134.5,27.5 C 133.5,27.1667 132.833,26.5 132.5,25.5C 132.435,25.0618 132.601,24.7284 133,24.5C 134.039,25.2438 134.539,26.2438 134.5,27.5 Z"/></g>
<g><path style="opacity:0.29" fill="#8c99e0" d="M 34.5,25.5 C 34.0269,26.9063 33.0269,27.573 31.5,27.5C 32.2418,25.6503 33.2418,24.9836 34.5,25.5 Z"/></g>
<g><path style="opacity:0.11" fill="#9590e1" d="M 140.5,31.5 C 138.973,31.573 137.973,30.9063 137.5,29.5C 138.758,28.9836 139.758,29.6503 140.5,31.5 Z"/></g>
<g><path style="opacity:0.227" fill="#889cde" d="M 29.5,29.5 C 28.5,31.1667 27.1667,32.5 25.5,33.5C 26.0312,31.4559 27.1978,29.7893 29,28.5C 29.3988,28.7284 29.5654,29.0618 29.5,29.5 Z"/></g>
<g><path style="opacity:1" fill="#363239" d="M 51.5,36.5 C 54.5,37.5 56.5,39.5 57.5,42.5C 55.1667,40.8333 53.1667,38.8333 51.5,36.5 Z"/></g>
<g><path style="opacity:0.29" fill="#9294e1" d="M 145.5,36.5 C 147.167,37.5 148.5,38.8333 149.5,40.5C 149.167,40.5 148.833,40.5 148.5,40.5C 146.738,39.7377 145.738,38.4044 145.5,36.5 Z"/></g>
<g><path style="opacity:0.039" fill="#8e97e1" d="M 23.5,35.5 C 22.1667,37.5 20.5,39.1667 18.5,40.5C 18.0618,40.5654 17.7284,40.3988 17.5,40C 19.1137,37.8733 21.1137,36.3733 23.5,35.5 Z"/></g>
<g><path style="opacity:1" fill="#27dec1" d="M 50.5,36.5 C 50.8333,36.5 51.1667,36.5 51.5,36.5C 53.1667,38.8333 55.1667,40.8333 57.5,42.5C 58.4884,43.795 59.4884,45.1283 60.5,46.5C 60.427,48.0269 61.0937,49.0269 62.5,49.5C 67.2467,55.3187 71.2467,61.6521 74.5,68.5C 72.2492,70.0838 70.2492,72.0838 68.5,74.5C 67.8333,74.5 67.1667,74.5 66.5,74.5C 62.971,67.2423 59.6377,59.909 56.5,52.5C 56.6309,51.6236 56.2975,50.9569 55.5,50.5C 54.6872,54.1616 54.0206,57.8282 53.5,61.5C 53.5,62.1667 53.5,62.8333 53.5,63.5C 52.4625,64.9303 51.7959,66.597 51.5,68.5C 50.0762,70.5145 49.4095,72.8478 49.5,75.5C 49.0074,77.8056 48.6741,80.139 48.5,82.5C 47.5422,87.0824 45.5422,91.0824 42.5,94.5C 41.5084,94.6716 40.8417,94.3382 40.5,93.5C 39.3496,74.4253 42.0163,55.9253 48.5,38C 48.8361,36.9701 49.5028,36.4701 50.5,36.5 Z"/></g>
<g><path style="opacity:0.031" fill="#ad75ea" d="M 149.5,40.5 C 150.833,41.1667 150.833,41.1667 149.5,40.5 Z"/></g>
<g><path style="opacity:0.157" fill="#948fe4" d="M 16.5,42.5 C 16.6716,43.4916 16.3382,44.1583 15.5,44.5C 14.5613,43.6726 14.8946,43.0059 16.5,42.5 Z"/></g>
<g><path style="opacity:1" fill="#26ddc0" d="M 121.5,43.5 C 121.427,45.0269 122.094,46.0269 123.5,46.5C 123.851,50.6836 124.518,54.6836 125.5,58.5C 125.5,58.8333 125.5,59.1667 125.5,59.5C 125.528,62.9164 126.528,65.9164 128.5,68.5C 129.458,70.3024 130.125,72.3024 130.5,74.5C 131.129,77.3973 132.129,80.064 133.5,82.5C 133.666,87.5111 133.499,92.5111 133,97.5C 132.617,98.056 132.117,98.3893 131.5,98.5C 128.215,98.7896 125.215,98.123 122.5,96.5C 122.443,95.391 122.11,94.391 121.5,93.5C 121.328,92.5084 121.662,91.8417 122.5,91.5C 123.659,92.4558 124.826,93.4558 126,94.5C 126.772,94.3552 127.439,94.0219 128,93.5C 128.667,90.5 128.667,87.5 128,84.5C 127.617,83.944 127.117,83.6107 126.5,83.5C 126.657,82.1266 126.49,80.7932 126,79.5C 123.278,74.6586 120.944,69.6586 119,64.5C 118.283,65.0442 117.783,65.7109 117.5,66.5C 115.928,69.2154 114.928,72.2154 114.5,75.5C 113.899,78.9679 112.899,82.3012 111.5,85.5C 110.883,85.6107 110.383,85.944 110,86.5C 107.564,83.5532 104.731,81.2199 101.5,79.5C 100.167,77.5 98.5,75.8333 96.5,74.5C 97.8333,70.1667 99.1667,65.8333 100.5,61.5C 100.5,60.8333 100.5,60.1667 100.5,59.5C 102.587,58.4154 103.92,56.7488 104.5,54.5C 105.46,52.5393 106.793,50.8726 108.5,49.5C 110.587,48.4154 111.92,46.7488 112.5,44.5C 115.173,39.7366 118.173,39.4033 121.5,43.5 Z"/></g>
<g><path style="opacity:0.008" fill="#a877e7" d="M 152.5,44.5 C 153.833,45.1667 153.833,45.1667 152.5,44.5 Z"/></g>
<g><path style="opacity:1" fill="#23352b" d="M 121.5,43.5 C 122.906,43.9731 123.573,44.9731 123.5,46.5C 122.094,46.0269 121.427,45.0269 121.5,43.5 Z"/></g>
<g><path style="opacity:0.267" fill="#8e98e1" d="M 14.5,45.5 C 14.6716,46.4916 14.3382,47.1583 13.5,47.5C 12.5613,46.6726 12.8946,46.0059 14.5,45.5 Z"/></g>
<g><path style="opacity:1" fill="#304039" d="M 60.5,46.5 C 61.9063,46.9731 62.573,47.9731 62.5,49.5C 61.0937,49.0269 60.427,48.0269 60.5,46.5 Z"/></g>
<g><path style="opacity:1" fill="#364a3e" d="M 112.5,44.5 C 111.92,46.7488 110.587,48.4154 108.5,49.5C 109.08,47.2512 110.413,45.5846 112.5,44.5 Z"/></g>
<g><path style="opacity:0.016" fill="#aa76eb" d="M 154.5,47.5 C 155.833,48.1667 155.833,48.1667 154.5,47.5 Z"/></g>
<g><path style="opacity:1" fill="#1da38c" d="M 50.5,36.5 C 49.5028,36.4701 48.8361,36.9701 48.5,38C 42.0163,55.9253 39.3496,74.4253 40.5,93.5C 39.5,92.8333 38.5,92.1667 37.5,91.5C 37.5,91.1667 37.5,90.8333 37.5,90.5C 36.5492,82.8715 36.5492,75.2049 37.5,67.5C 37.5,67.1667 37.5,66.8333 37.5,66.5C 39.0395,64.1617 39.7062,61.4951 39.5,58.5C 40.7682,56.0948 41.4349,53.4282 41.5,50.5C 41.7612,45.889 42.9278,41.5557 45,37.5C 46.7897,35.7088 48.623,35.3754 50.5,36.5 Z"/></g>
<g><path style="opacity:1" fill="#3d4d52" d="M 123.5,46.5 C 124.222,46.9175 124.722,47.5842 125,48.5C 125.498,51.8168 125.665,55.1501 125.5,58.5C 124.518,54.6836 123.851,50.6836 123.5,46.5 Z"/></g>
<g><path style="opacity:1" fill="#2b4e45" d="M 41.5,50.5 C 41.4349,53.4282 40.7682,56.0948 39.5,58.5C 39.2938,55.5049 39.9605,52.8383 41.5,50.5 Z"/></g>
<g><path style="opacity:0.008" fill="#988ee2" d="M 9.5,53.5 C 9.20414,55.403 8.53747,57.0697 7.5,58.5C 7.06178,58.5654 6.72845,58.3988 6.5,58C 7.05273,56.1222 8.05273,54.6222 9.5,53.5 Z"/></g>
<g><path style="opacity:0.031" fill="#a27fe7" d="M 158.5,56.5 C 160.424,56.7107 160.757,57.3774 159.5,58.5C 159.167,57.8333 158.833,57.1667 158.5,56.5 Z"/></g>
<g><path style="opacity:1" fill="#2f5343" d="M 104.5,54.5 C 103.92,56.7488 102.587,58.4154 100.5,59.5C 101.08,57.2512 102.413,55.5846 104.5,54.5 Z"/></g>
<g><path style="opacity:1" fill="#265951" d="M 56.5,52.5 C 55.8857,56.1352 55.5524,59.8019 55.5,63.5C 54.8333,62.8333 54.1667,62.1667 53.5,61.5C 54.0206,57.8282 54.6872,54.1616 55.5,50.5C 56.2975,50.9569 56.6309,51.6236 56.5,52.5 Z"/></g>
<g><path style="opacity:1" fill="#1ca18c" d="M 56.5,52.5 C 59.6377,59.909 62.971,67.2423 66.5,74.5C 65.8902,75.391 65.5569,76.391 65.5,77.5C 59.7246,74.6286 56.3913,69.962 55.5,63.5C 55.5524,59.8019 55.8857,56.1352 56.5,52.5 Z"/></g>
<g><path style="opacity:1" fill="#263c32" d="M 100.5,59.5 C 100.5,60.1667 100.5,60.8333 100.5,61.5C 99.1667,62.5 97.8333,63.5 96.5,64.5C 97.0798,62.2512 98.4131,60.5846 100.5,59.5 Z"/></g>
<g><path style="opacity:1" fill="#238267" d="M 125.5,59.5 C 127.072,62.2154 128.072,65.2154 128.5,68.5C 126.528,65.9164 125.528,62.9164 125.5,59.5 Z"/></g>
<g><path style="opacity:1" fill="#244338" d="M 39.5,58.5 C 39.7062,61.4951 39.0395,64.1617 37.5,66.5C 37.5651,63.5718 38.2318,60.9052 39.5,58.5 Z"/></g>
<g><path style="opacity:0.978" fill="#fefffe" d="M 179.5,66.5 C 185.833,66.5 192.167,66.5 198.5,66.5C 198.5,73.1667 198.5,79.8333 198.5,86.5C 204.167,86.5 209.833,86.5 215.5,86.5C 215.5,79.8333 215.5,73.1667 215.5,66.5C 221.833,66.5 228.167,66.5 234.5,66.5C 234.5,84.8333 234.5,103.167 234.5,121.5C 228.167,121.5 221.833,121.5 215.5,121.5C 215.5,114.833 215.5,108.167 215.5,101.5C 209.833,101.5 204.167,101.5 198.5,101.5C 198.5,108.167 198.5,114.833 198.5,121.5C 192.167,121.5 185.833,121.5 179.5,121.5C 179.5,103.167 179.5,84.8333 179.5,66.5 Z"/></g>
<g><path style="opacity:0.934" fill="#fefffe" d="M 241.5,66.5 C 248.167,66.5 254.833,66.5 261.5,66.5C 261.333,79.1711 261.5,91.8377 262,104.5C 264.219,106.995 267.052,107.995 270.5,107.5C 273.948,107.995 276.781,106.995 279,104.5C 279.5,91.8377 279.667,79.1711 279.5,66.5C 286.167,66.5 292.833,66.5 299.5,66.5C 299.667,79.8375 299.5,93.1708 299,106.5C 297.614,114.22 293.114,119.053 285.5,121C 275.5,123 265.5,123 255.5,121C 247.427,118.928 242.927,113.761 242,105.5C 241.5,92.5043 241.333,79.5043 241.5,66.5 Z"/></g>
<g><path style="opacity:0.967" fill="#fefffe" d="M 305.5,66.5 C 312.175,66.3337 318.842,66.5004 325.5,67C 332.333,75.1667 339.167,83.3333 346,91.5C 346.5,83.1733 346.666,74.84 346.5,66.5C 352.833,66.5 359.167,66.5 365.5,66.5C 365.5,84.8333 365.5,103.167 365.5,121.5C 358.825,121.666 352.158,121.5 345.5,121C 339,113.167 332.5,105.333 326,97.5C 325.5,105.493 325.334,113.493 325.5,121.5C 318.833,121.5 312.167,121.5 305.5,121.5C 305.5,103.167 305.5,84.8333 305.5,66.5 Z"/></g>
<g><path style="opacity:0.967" fill="#fefffe" d="M 372.5,66.5 C 379.175,66.3337 385.842,66.5004 392.5,67C 399.333,75.1667 406.167,83.3333 413,91.5C 413.5,83.1733 413.666,74.84 413.5,66.5C 419.833,66.5 426.167,66.5 432.5,66.5C 432.5,84.8333 432.5,103.167 432.5,121.5C 425.825,121.666 419.158,121.5 412.5,121C 406,113.167 399.5,105.333 393,97.5C 392.5,105.493 392.334,113.493 392.5,121.5C 385.833,121.5 379.167,121.5 372.5,121.5C 372.5,103.167 372.5,84.8333 372.5,66.5 Z"/></g>
<g><path style="opacity:0.959" fill="#fefffe" d="M 437.5,66.5 C 444.508,66.3337 451.508,66.5004 458.5,67C 460.935,72.7037 463.769,78.2037 467,83.5C 469.773,78.2872 472.273,72.9539 474.5,67.5C 481.811,66.3354 489.144,66.1687 496.5,67C 490,78.1667 483.5,89.3333 477,100.5C 476.5,107.492 476.334,114.492 476.5,121.5C 470.167,121.5 463.833,121.5 457.5,121.5C 457.666,114.825 457.5,108.158 457,101.5C 449.969,90.1015 443.469,78.4349 437.5,66.5 Z"/></g>
<g><path style="opacity:1" fill="#254d3a" d="M 96.5,64.5 C 95.9202,66.7488 94.5869,68.4154 92.5,69.5C 93.0798,67.2512 94.4131,65.5846 96.5,64.5 Z"/></g>
<g><path style="opacity:1" fill="#1ca791" d="M 100.5,61.5 C 99.1667,65.8333 97.8333,70.1667 96.5,74.5C 96.1667,74.5 95.8333,74.5 95.5,74.5C 94.1667,73.1667 92.8333,71.8333 91.5,70.5C 91.5,69.8333 91.8333,69.5 92.5,69.5C 94.5869,68.4154 95.9202,66.7488 96.5,64.5C 97.8333,63.5 99.1667,62.5 100.5,61.5 Z"/></g>
<g><path style="opacity:1" fill="#275044" d="M 74.5,68.5 C 77.9828,69.0101 81.3162,69.6768 84.5,70.5C 83.5,70.5 82.5,70.5 81.5,70.5C 79.4727,70.3379 77.4727,70.5045 75.5,71C 73.1136,72.1932 70.7802,73.3599 68.5,74.5C 70.2492,72.0838 72.2492,70.0838 74.5,68.5 Z"/></g>
<g><path style="opacity:0.337" fill="#82a2db" d="M 3.5,70.5 C 3.67158,71.4916 3.33825,72.1583 2.5,72.5C 1.24258,71.3774 1.57591,70.7107 3.5,70.5 Z"/></g>
<g><path style="opacity:1" fill="#216559" d="M 51.5,68.5 C 51.8333,70.5 52.1667,72.5 52.5,74.5C 51.5655,75.5676 51.2322,76.901 51.5,78.5C 50.8333,77.5 50.1667,76.5 49.5,75.5C 49.4095,72.8478 50.0762,70.5145 51.5,68.5 Z"/></g>
<g><path style="opacity:1" fill="#48212a" d="M 53.5,63.5 C 53.5,68.1667 53.5,72.8333 53.5,77.5C 52.596,76.791 52.2627,75.791 52.5,74.5C 52.1667,72.5 51.8333,70.5 51.5,68.5C 51.7959,66.597 52.4625,64.9303 53.5,63.5 Z"/></g>
<g><path style="opacity:1" fill="#a7546a" d="M 53.5,61.5 C 54.1667,62.1667 54.8333,62.8333 55.5,63.5C 56.3913,69.962 59.7246,74.6286 65.5,77.5C 62.4534,80.5448 59.7867,83.8781 57.5,87.5C 56.8333,87.5 56.1667,87.5 55.5,87.5C 53.9774,84.3703 53.3107,81.037 53.5,77.5C 53.5,72.8333 53.5,68.1667 53.5,63.5C 53.5,62.8333 53.5,62.1667 53.5,61.5 Z"/></g>
<g><path style="opacity:1" fill="#273732" d="M 89.5,70.5 C 90.1667,70.5 90.8333,70.5 91.5,70.5C 92.8333,71.8333 94.1667,73.1667 95.5,74.5C 92.8021,74.1551 90.8021,72.8218 89.5,70.5 Z"/></g>
<g><path style="opacity:1" fill="#252926" d="M 66.5,74.5 C 67.1667,74.5 67.8333,74.5 68.5,74.5C 67.8333,75.8333 66.8333,76.8333 65.5,77.5C 65.5569,76.391 65.8902,75.391 66.5,74.5 Z"/></g>
<g><path style="opacity:1" fill="#8a4254" d="M 126.5,83.5 C 125.751,82.469 125.085,81.3024 124.5,80C 123.833,79.3333 123.167,79.3333 122.5,80C 121.577,82.0408 121.244,84.2075 121.5,86.5C 119.546,80.0612 118.212,73.3945 117.5,66.5C 117.783,65.7109 118.283,65.0442 119,64.5C 120.944,69.6586 123.278,74.6586 126,79.5C 126.49,80.7932 126.657,82.1266 126.5,83.5 Z"/></g>
<g><path style="opacity:0.243" fill="#859cdb" d="M 164.5,74.5 C 166.424,74.7107 166.757,75.3774 165.5,76.5C 164.662,76.1583 164.328,75.4916 164.5,74.5 Z"/></g>
<g><path style="opacity:1" fill="#2d3f39" d="M 95.5,74.5 C 95.8333,74.5 96.1667,74.5 96.5,74.5C 98.5,75.8333 100.167,77.5 101.5,79.5C 98.9108,78.5806 96.9108,76.914 95.5,74.5 Z"/></g>
<g><path style="opacity:1" fill="#266e5a" d="M 117.5,66.5 C 118.212,73.3945 119.546,80.0612 121.5,86.5C 122.038,88.1172 122.371,89.7839 122.5,91.5C 121.662,91.8417 121.328,92.5084 121.5,93.5C 121.167,93.5 120.833,93.5 120.5,93.5C 118.829,87.9877 117.662,82.321 117,76.5C 116.329,75.7476 115.496,75.4142 114.5,75.5C 114.928,72.2154 115.928,69.2154 117.5,66.5 Z"/></g>
<g><path style="opacity:1" fill="#453f56" d="M 130.5,74.5 C 132.655,76.6174 133.655,79.284 133.5,82.5C 132.129,80.064 131.129,77.3973 130.5,74.5 Z"/></g>
<g><path style="opacity:1" fill="#2e4a42" d="M 101.5,79.5 C 104.731,81.2199 107.564,83.5532 110,86.5C 110.383,85.944 110.883,85.6107 111.5,85.5C 111.167,86.8333 110.833,88.1667 110.5,89.5C 107.529,86.1924 104.529,82.859 101.5,79.5 Z"/></g>
<g><path style="opacity:0.165" fill="#8a97df" d="M 1.5,80.5 C 1.44312,81.609 1.10978,82.609 0.5,83.5C 0.166667,83.5 -0.166667,83.5 -0.5,83.5C -0.5,82.8333 -0.5,82.1667 -0.5,81.5C 0.166667,81.1667 0.833333,80.8333 1.5,80.5 Z"/></g>
<g><path style="opacity:1" fill="#48354f" d="M 49.5,75.5 C 50.1667,76.5 50.8333,77.5 51.5,78.5C 51.5,79.8333 51.5,81.1667 51.5,82.5C 50.7784,82.0825 50.2784,81.4158 50,80.5C 49.7216,81.4158 49.2216,82.0825 48.5,82.5C 48.6741,80.139 49.0074,77.8056 49.5,75.5 Z"/></g>
<g><path style="opacity:1" fill="#aa576d" d="M 126.5,83.5 C 127.117,83.6107 127.617,83.944 128,84.5C 128.667,87.5 128.667,90.5 128,93.5C 127.439,94.0219 126.772,94.3552 126,94.5C 124.826,93.4558 123.659,92.4558 122.5,91.5C 122.371,89.7839 122.038,88.1172 121.5,86.5C 121.244,84.2075 121.577,82.0408 122.5,80C 123.167,79.3333 123.833,79.3333 124.5,80C 125.085,81.3024 125.751,82.469 126.5,83.5 Z"/></g>
<g><path style="opacity:1" fill="#214b3f" d="M 37.5,67.5 C 36.5492,75.2049 36.5492,82.8715 37.5,90.5C 36.8826,90.3893 36.3826,90.056 36,89.5C 35.0974,81.9272 35.5974,74.5939 37.5,67.5 Z"/></g>
<g><path style="opacity:0.416" fill="#7da5da" d="M 165.5,79.5 C 167.69,80.7476 168.023,82.4143 166.5,84.5C 165.549,83.0813 165.216,81.4147 165.5,79.5 Z"/></g>
<g><path style="opacity:1" fill="#1d816c" d="M 52.5,74.5 C 52.2627,75.791 52.596,76.791 53.5,77.5C 53.3107,81.037 53.9774,84.3703 55.5,87.5C 55.3404,89.153 54.6737,90.4863 53.5,91.5C 52.087,88.7814 51.4203,85.7814 51.5,82.5C 51.5,81.1667 51.5,79.8333 51.5,78.5C 51.2322,76.901 51.5655,75.5676 52.5,74.5 Z"/></g>
<g><path style="opacity:1" fill="#29322d" d="M 55.5,87.5 C 56.1667,87.5 56.8333,87.5 57.5,87.5C 56.6493,89.8816 55.316,91.8816 53.5,93.5C 53.5,92.8333 53.5,92.1667 53.5,91.5C 54.6737,90.4863 55.3404,89.153 55.5,87.5 Z"/></g>
<g><path style="opacity:1" fill="#295443" d="M 110.5,89.5 C 111.906,89.9731 112.573,90.9731 112.5,92.5C 111.094,92.0269 110.427,91.0269 110.5,89.5 Z"/></g>
<g><path style="opacity:1" fill="#37343f" d="M 37.5,91.5 C 38.5,92.1667 39.5,92.8333 40.5,93.5C 40.8417,94.3382 41.5084,94.6716 42.5,94.5C 39.7647,95.8211 38.0981,94.8211 37.5,91.5 Z"/></g>
<g><path style="opacity:1" fill="#48455b" d="M 112.5,92.5 C 114.311,94.3854 115.478,96.7187 116,99.5C 116.81,103.358 116.643,107.024 115.5,110.5C 115.942,104.237 114.942,98.2374 112.5,92.5 Z"/></g>
<g><path style="opacity:1" fill="#3e3342" d="M 120.5,93.5 C 120.833,93.5 121.167,93.5 121.5,93.5C 122.11,94.391 122.443,95.391 122.5,96.5C 121.094,96.0269 120.427,95.0269 120.5,93.5 Z"/></g>
<g><path style="opacity:1" fill="#1f9a84" d="M 81.5,70.5 C 75.5641,75.2608 69.7308,80.2608 64,85.5C 55.7261,95.6792 54.3928,106.679 60,118.5C 62.3959,121.067 64.8959,123.4 67.5,125.5C 66.791,126.404 65.791,126.737 64.5,126.5C 51.8534,120.56 47.52,110.893 51.5,97.5C 52.9063,97.0269 53.573,96.0269 53.5,94.5C 53.5,94.1667 53.5,93.8333 53.5,93.5C 55.316,91.8816 56.6493,89.8816 57.5,87.5C 59.7867,83.8781 62.4534,80.5448 65.5,77.5C 66.8333,76.8333 67.8333,75.8333 68.5,74.5C 70.7802,73.3599 73.1136,72.1932 75.5,71C 77.4727,70.5045 79.4727,70.3379 81.5,70.5 Z"/></g>
<g><path style="opacity:1" fill="#383a3e" d="M 53.5,94.5 C 53.573,96.0269 52.9063,97.0269 51.5,97.5C 51.427,95.9731 52.0937,94.9731 53.5,94.5 Z"/></g>
<g><path style="opacity:1" fill="#2b6756" d="M 122.5,96.5 C 125.215,98.123 128.215,98.7896 131.5,98.5C 128.08,101.215 125.08,100.549 122.5,96.5 Z"/></g>
<g><path style="opacity:0.173" fill="#81a0db" d="M 0.5,96.5 C 1.46138,98.2646 1.79472,100.265 1.5,102.5C 0.833333,101.833 0.166667,101.167 -0.5,100.5C -0.5,99.5 -0.5,98.5 -0.5,97.5C 0.166667,97.5 0.5,97.1667 0.5,96.5 Z"/></g>
<g><path style="opacity:0.125" fill="#8a96df" d="M 166.5,98.5 C 167.853,100.128 167.519,101.462 165.5,102.5C 165.433,101.041 165.766,99.7079 166.5,98.5 Z"/></g>
<g><path style="opacity:1" fill="#26dfc3" d="M 81.5,70.5 C 82.5,70.5 83.5,70.5 84.5,70.5C 86.1667,70.5 87.8333,70.5 89.5,70.5C 90.8021,72.8218 92.8021,74.1551 95.5,74.5C 96.9108,76.914 98.9108,78.5806 101.5,79.5C 104.529,82.859 107.529,86.1924 110.5,89.5C 110.427,91.0269 111.094,92.0269 112.5,92.5C 114.942,98.2374 115.942,104.237 115.5,110.5C 113.329,114.844 110.663,118.844 107.5,122.5C 105.973,122.427 104.973,123.094 104.5,124.5C 102.973,124.427 101.973,125.094 101.5,126.5C 98.0111,127.658 94.6777,128.991 91.5,130.5C 85.1021,130.757 78.7688,130.257 72.5,129C 70.4156,128.303 68.7489,127.136 67.5,125.5C 64.8959,123.4 62.3959,121.067 60,118.5C 54.3928,106.679 55.7261,95.6792 64,85.5C 69.7308,80.2608 75.5641,75.2608 81.5,70.5 Z"/></g>
<g><path style="opacity:1" fill="#2b5149" d="M 79.5,96.5 C 80.1174,96.6107 80.6174,96.944 81,97.5C 81.8007,100.367 81.6341,103.034 80.5,105.5C 80.4921,102.455 80.1587,99.4552 79.5,96.5 Z"/></g>
<g><path style="opacity:1" fill="#5c685e" d="M 106.5,95.5 C 110.304,99.512 110.471,103.845 107,108.5C 106.329,109.252 105.496,109.586 104.5,109.5C 107.535,105.558 108.202,101.225 106.5,96.5C 106.5,96.1667 106.5,95.8333 106.5,95.5 Z"/></g>
<g><path style="opacity:1" fill="#27574b" d="M 90.5,96.5 C 90.5,96.8333 90.5,97.1667 90.5,97.5C 89.7347,100.096 89.4013,102.763 89.5,105.5C 88.3659,103.034 88.1993,100.367 89,97.5C 89.3826,96.944 89.8826,96.6107 90.5,96.5 Z"/></g>
<g><path style="opacity:1" fill="#4a5a53" d="M 63.5,94.5 C 62.1086,96.7915 61.1086,99.2915 60.5,102C 61.0329,104.226 61.6996,106.393 62.5,108.5C 60.1716,106.834 59.1716,104.501 59.5,101.5C 59.159,98.1815 60.4924,95.8482 63.5,94.5 Z"/></g>
<g><path style="opacity:1" fill="#f4f0f0" d="M 106.5,96.5 C 108.202,101.225 107.535,105.558 104.5,109.5C 101.236,110.324 97.9023,110.658 94.5,110.5C 93.1667,108.5 91.5,106.833 89.5,105.5C 89.4013,102.763 89.7347,100.096 90.5,97.5C 92.3527,98.3014 94.0194,98.6347 95.5,98.5C 93.8497,105.684 96.5164,108.184 103.5,106C 106.115,103.093 106.115,100.26 103.5,97.5C 104.209,96.596 105.209,96.2627 106.5,96.5 Z"/></g>
<g><path style="opacity:1" fill="#ece8e8" d="M 75.5,92.5 C 76.5,94.1667 77.8333,95.5 79.5,96.5C 80.1587,99.4552 80.4921,102.455 80.5,105.5C 79.6618,105.842 79.3284,106.508 79.5,107.5C 78.1667,108.167 77.1667,109.167 76.5,110.5C 72.5,111.833 68.5,111.833 64.5,110.5C 64.1667,109.5 63.5,108.833 62.5,108.5C 61.6996,106.393 61.0329,104.226 60.5,102C 61.1086,99.2915 62.1086,96.7915 63.5,94.5C 67.2273,92.7476 71.2273,92.081 75.5,92.5 Z"/></g>
<g><path style="opacity:1" fill="#161616" d="M 103.5,97.5 C 106.115,100.26 106.115,103.093 103.5,106C 96.5164,108.184 93.8497,105.684 95.5,98.5C 97.9225,96.3498 100.589,96.0165 103.5,97.5 Z"/></g>
<g><path style="opacity:1" fill="#d4d4d4" d="M 97.5,98.5 C 98.5,98.5 99.5,98.5 100.5,98.5C 100.426,102.541 99.0928,103.208 96.5,100.5C 96.8627,99.8165 97.1961,99.1499 97.5,98.5 Z"/></g>
<g><path style="opacity:1" fill="#121212" d="M 69.5,96.5 C 77.0224,96.6698 79.0224,100.003 75.5,106.5C 68.5502,109.046 65.7169,106.713 67,99.5C 67.6979,98.3094 68.5313,97.3094 69.5,96.5 Z"/></g>
<g><path style="opacity:1" fill="#e7e7e7" d="M 68.5,98.5 C 70.3464,98.2222 71.6798,98.8888 72.5,100.5C 71.6798,102.111 70.3464,102.778 68.5,102.5C 68.5,101.167 68.5,99.8333 68.5,98.5 Z"/></g>
<g><path style="opacity:1" fill="#423431" d="M 93.5,93.5 C 92.8333,94.8333 91.8333,95.8333 90.5,96.5C 90.5,94.5 91.5,93.5 93.5,93.5 Z"/></g>
<g><path style="opacity:1" fill="#d2cece" d="M 102.5,92.5 C 104.632,92.5544 105.965,93.5544 106.5,95.5C 106.5,95.8333 106.5,96.1667 106.5,96.5C 105.209,96.2627 104.209,96.596 103.5,97.5C 100.589,96.0165 97.9225,96.3498 95.5,98.5C 94.0194,98.6347 92.3527,98.3014 90.5,97.5C 90.5,97.1667 90.5,96.8333 90.5,96.5C 91.8333,95.8333 92.8333,94.8333 93.5,93.5C 96.4299,92.701 99.4299,92.3677 102.5,92.5 Z"/></g>
<g><path style="opacity:1" fill="#34443a" d="M 75.5,92.5 C 77.8333,92.8333 79.1667,94.1667 79.5,96.5C 77.8333,95.5 76.5,94.1667 75.5,92.5 Z"/></g>
<g><path style="opacity:1" fill="#4c544e" d="M 102.5,92.5 C 99.4299,92.3677 96.4299,92.701 93.5,93.5C 93.6107,92.8826 93.944,92.3826 94.5,92C 97.367,91.1993 100.034,91.3659 102.5,92.5 Z"/></g>
<g><path style="opacity:1" fill="#60635e" d="M 75.5,92.5 C 71.2273,92.081 67.2273,92.7476 63.5,94.5C 66.9038,90.0852 70.9038,89.4186 75.5,92.5 Z"/></g>
<g><path style="opacity:1" fill="#18473d" d="M 96.5,85.5 C 99.9496,84.7564 101.616,86.0897 101.5,89.5C 99.5,89.5 97.5,89.5 95.5,89.5C 95.4326,88.0413 95.7659,86.7079 96.5,85.5 Z"/></g>
<g><path style="opacity:1" fill="#183e35" d="M 68.5,85.5 C 72.4193,84.7464 73.7527,86.0797 72.5,89.5C 70.7749,88.9851 69.1083,88.3184 67.5,87.5C 67.8627,86.8165 68.1961,86.1499 68.5,85.5 Z"/></g>
<g><path style="opacity:0.024" fill="#9a89e2" d="M 165.5,105.5 C 166.715,106.779 166.382,107.779 164.5,108.5C 164.263,107.209 164.596,106.209 165.5,105.5 Z"/></g>
<g><path style="opacity:1" fill="#384d42" d="M 89.5,105.5 C 91.5,106.833 93.1667,108.5 94.5,110.5C 91.8333,109.833 90.1667,108.167 89.5,105.5 Z"/></g>
<g><path style="opacity:1" fill="#2f5246" d="M 79.5,107.5 C 79.5,109.5 78.5,110.5 76.5,110.5C 77.1667,109.167 78.1667,108.167 79.5,107.5 Z"/></g>
<g><path style="opacity:0.141" fill="#859cde" d="M 2.5,109.5 C 3.33825,109.842 3.67158,110.508 3.5,111.5C 1.57591,111.289 1.24258,110.623 2.5,109.5 Z"/></g>
<g><path style="opacity:1" fill="#3c5a50" d="M 104.5,109.5 C 104.389,110.117 104.056,110.617 103.5,111C 100.304,111.805 97.3035,111.638 94.5,110.5C 97.9023,110.658 101.236,110.324 104.5,109.5 Z"/></g>
<g><path style="opacity:1" fill="#55605a" d="M 64.5,110.5 C 68.5,111.833 72.5,111.833 76.5,110.5C 76.3893,111.117 76.056,111.617 75.5,112C 72.1667,112.667 68.8333,112.667 65.5,112C 64.944,111.617 64.6107,111.117 64.5,110.5 Z"/></g>
<g><path style="opacity:1" fill="#7a3c42" d="M 82.5,111.5 C 85.0728,111.148 87.4062,111.648 89.5,113C 87.6354,114.301 85.6354,114.635 83.5,114C 82.7476,113.329 82.4142,112.496 82.5,111.5 Z"/></g>
<g><path style="opacity:0.008" fill="#9b88e4" d="M 163.5,113.5 C 164.757,114.623 164.424,115.289 162.5,115.5C 162.328,114.508 162.662,113.842 163.5,113.5 Z"/></g>
<g><path style="opacity:0.039" fill="#889add" d="M 162.5,116.5 C 163.439,117.327 163.105,117.994 161.5,118.5C 161.328,117.508 161.662,116.842 162.5,116.5 Z"/></g>
<g><path style="opacity:1" fill="#4c7468" d="M 91.5,117.5 C 92.525,117.897 92.6917,118.563 92,119.5C 87.1386,124.842 82.3053,124.676 77.5,119C 79.0468,118.667 80.3801,119.167 81.5,120.5C 84.443,119.756 87.443,119.256 90.5,119C 91.056,118.617 91.3893,118.117 91.5,117.5 Z"/></g>
<g><path style="opacity:1" fill="#f4d8dd" d="M 83.5,120.5 C 85.337,120.639 85.6704,121.306 84.5,122.5C 83.7025,122.043 83.3691,121.376 83.5,120.5 Z"/></g>
<g><path style="opacity:0.016" fill="#a280e7" d="M 160.5,121.5 C 161.757,122.623 161.424,123.289 159.5,123.5C 159.833,122.833 160.167,122.167 160.5,121.5 Z"/></g>
<g><path style="opacity:1" fill="#513458" d="M 107.5,122.5 C 107.027,123.906 106.027,124.573 104.5,124.5C 104.973,123.094 105.973,122.427 107.5,122.5 Z"/></g>
<g><path style="opacity:1" fill="#2a4c45" d="M 67.5,125.5 C 68.7489,127.136 70.4156,128.303 72.5,129C 78.7688,130.257 85.1021,130.757 91.5,130.5C 91.1849,133.211 91.8516,135.544 93.5,137.5C 92.7784,137.918 92.2784,138.584 92,139.5C 91.6667,139.167 91.3333,138.833 91,138.5C 91.0302,135.639 90.1969,133.305 88.5,131.5C 84.5,131.5 80.5,131.5 76.5,131.5C 76.5,132.833 76.5,134.167 76.5,135.5C 76.573,137.027 75.9063,138.027 74.5,138.5C 74.5,137.167 73.8333,136.5 72.5,136.5C 73.172,135.733 74.0053,135.066 75,134.5C 75.7494,133.365 75.5827,132.365 74.5,131.5C 70.8872,130.198 67.5539,128.531 64.5,126.5C 65.791,126.737 66.791,126.404 67.5,125.5 Z"/></g>
<g><path style="opacity:1" fill="#1b9e88" d="M 88.5,131.5 C 84.5892,132.818 80.5892,134.151 76.5,135.5C 76.5,134.167 76.5,132.833 76.5,131.5C 80.5,131.5 84.5,131.5 88.5,131.5 Z"/></g>
<g><path style="opacity:0.008" fill="#9b86e5" d="M 12.5,133.5 C 13.3382,133.842 13.6716,134.508 13.5,135.5C 11.8946,134.994 11.5613,134.327 12.5,133.5 Z"/></g>
<g><path style="opacity:0.047" fill="#a37fe6" d="M 154.5,133.5 C 155.439,134.327 155.105,134.994 153.5,135.5C 153.328,134.508 153.662,133.842 154.5,133.5 Z"/></g>
<g><path style="opacity:1" fill="#7e60a9" d="M 101.5,126.5 C 99.3136,129.3 96.3136,130.634 92.5,130.5C 92.5,132.167 92.5,133.833 92.5,135.5C 95.0772,135.455 97.0772,136.455 98.5,138.5C 97.8333,138.5 97.1667,138.5 96.5,138.5C 95.391,138.443 94.391,138.11 93.5,137.5C 91.8516,135.544 91.1849,133.211 91.5,130.5C 94.6777,128.991 98.0111,127.658 101.5,126.5 Z"/></g>
<g><path style="opacity:0.031" fill="#a37ee7" d="M 152.5,136.5 C 153.439,137.327 153.105,137.994 151.5,138.5C 151.328,137.508 151.662,136.842 152.5,136.5 Z"/></g>
<g><path style="opacity:0.259" fill="#8f96e2" d="M 15.5,137.5 C 16.3382,137.842 16.6716,138.508 16.5,139.5C 14.8946,138.994 14.5613,138.327 15.5,137.5 Z"/></g>
<g><path style="opacity:1" fill="#3e444e" d="M 96.5,138.5 C 97.1667,138.5 97.8333,138.5 98.5,138.5C 100.482,138.995 102.482,139.495 104.5,140C 105.252,140.671 105.586,141.504 105.5,142.5C 102.527,141.013 99.5274,139.68 96.5,138.5 Z"/></g>
<g><path style="opacity:0.008" fill="#a978e8" d="M 150.5,139.5 C 151.833,140.167 151.833,140.167 150.5,139.5 Z"/></g>
<g><path style="opacity:1" fill="#238873" d="M 72.5,136.5 C 73.8333,136.5 74.5,137.167 74.5,138.5C 67.9803,141.351 62.647,145.684 58.5,151.5C 59.3769,142.957 64.0436,137.957 72.5,136.5 Z"/></g>
<g><path style="opacity:0.125" fill="#9490e1" d="M 18.5,141.5 C 19.9063,141.973 20.573,142.973 20.5,144.5C 18.6503,143.758 17.9836,142.758 18.5,141.5 Z"/></g>
<g><path style="opacity:0.031" fill="#9f84e6" d="M 149.5,140.5 C 149.833,140.5 150.167,140.5 150.5,140.5C 149.833,141.833 148.833,142.833 147.5,143.5C 147.427,141.973 148.094,140.973 149.5,140.5 Z"/></g>
<g><path style="opacity:1" fill="#363a40" d="M 105.5,142.5 C 106.906,142.973 107.573,143.973 107.5,145.5C 106.094,145.027 105.427,144.027 105.5,142.5 Z"/></g>
<g><path style="opacity:0.337" fill="#9295e1" d="M 26.5,150.5 C 28.4044,150.738 29.7377,151.738 30.5,153.5C 30.5,153.833 30.5,154.167 30.5,154.5C 28.8333,153.5 27.5,152.167 26.5,150.5 Z"/></g>
<g><path style="opacity:0.039" fill="#a37fe7" d="M 138.5,152.5 C 138.167,153.5 137.5,154.167 136.5,154.5C 136.5,154.167 136.5,153.833 136.5,153.5C 136.842,152.662 137.508,152.328 138.5,152.5 Z"/></g>
<g><path style="opacity:0.031" fill="#ac75ea" d="M 30.5,154.5 C 30.8333,154.5 31.1667,154.5 31.5,154.5C 31.3147,155.17 30.9813,155.17 30.5,154.5 Z"/></g>
<g><path style="opacity:0.024" fill="#ab75eb" d="M 135.5,154.5 C 135.833,154.5 136.167,154.5 136.5,154.5C 136.315,155.17 135.981,155.17 135.5,154.5 Z"/></g>
<g><path style="opacity:0.165" fill="#9390e3" d="M 32.5,155.5 C 33.4916,155.328 34.1583,155.662 34.5,156.5C 33.6726,157.439 33.0059,157.105 32.5,155.5 Z"/></g>
<g><path style="opacity:0.024" fill="#a184e7" d="M 134.5,155.5 C 133.994,157.105 133.327,157.439 132.5,156.5C 132.842,155.662 133.508,155.328 134.5,155.5 Z"/></g>
<g><path style="opacity:0.012" fill="#a281e6" d="M 37.5,159.5 C 37.8333,159.5 38.1667,159.5 38.5,159.5C 39.4916,159.328 40.1583,159.662 40.5,160.5C 40.5654,160.938 40.3988,161.272 40,161.5C 39.0053,160.934 38.172,160.267 37.5,159.5 Z"/></g>
<g><path style="opacity:0.008" fill="#a084e5" d="M 128.5,159.5 C 127.994,161.105 127.327,161.439 126.5,160.5C 126.842,159.662 127.508,159.328 128.5,159.5 Z"/></g>
<g><path style="opacity:0.024" fill="#a082e5" d="M 115.5,165.5 C 115.289,167.424 114.623,167.757 113.5,166.5C 114.167,166.167 114.833,165.833 115.5,165.5 Z"/></g>
<g><path style="opacity:0.353" fill="#78a9d9" d="M 93.5,171.5 C 94.5676,170.566 95.901,170.232 97.5,170.5C 96.5967,172.62 95.2633,172.954 93.5,171.5 Z"/></g>
<g><path style="opacity:0.01" fill="#9989e4" d="M 76.5,171.5 C 81.1667,171.5 85.8333,171.5 90.5,171.5C 90.3893,172.117 90.056,172.617 89.5,173C 87.6667,173.167 85.8333,173.333 84,173.5C 81.1345,173.7 78.6345,173.033 76.5,171.5 Z"/></g>
</svg>
